<?xml version="1.0" encoding="UTF-8"?>
<svg id="Layer_2" data-name="Layer 2" xmlns="http://www.w3.org/2000/svg" viewBox="0 0 47.15 59.01">
  <defs>
    <style>
      .cls-1 {
        stroke-width: 0px;
      }

      .cls-2 {
        stroke: #000;
        stroke-miterlimit: 10;
        stroke-width: 0px;
      }
    </style>
  </defs>
  <g id="Layer_1-2" data-name="Layer 1">
    <g id="Logo_1" data-name="Logo 1">
      <g id="Person_Spiking" data-name="Person Spiking">
        <g id="Volleyball">
          <ellipse class="cls-1" cx="37.01" cy="5.36" rx="5.31" ry="5.36"/>
          <path class="cls-2" d="M41.62,2.69c-4.31-4.33-9.21,0-9.21,0,0,0,0,.84,4.35.53,4.35-.31,5.17,2.27,5.08,3.53,0,0-.97-.41-2.55-.21l-2.16.21s-3.31.23-4.18-.07c-.87-.3-1.16-.61-1.24-1.19"/>
          <path class="cls-2" d="M33.37,9.25s2.34,1.13,6.65-.09c0,0-.81.75-1.78,1.15-1.33.55-1.83.34-1.28.4"/>
        </g>
        <path id="Spiking" class="cls-1" d="M9.95,41.59l-.95-2.1s-.82-.93-1.96,0c0,0-5.5,2.72-6.4,3.82,0,0-1.62,2.25.29,2.94l2.4-.91,3.52-.1.9-.54s2.98-.12,3.64.54l7.2,2.5-2.5,1.52-.63.12-2.59,1.59s-2.16-2.47-3.39-.22c0,0-.39,1.13-.87,2.74,0,0-1.12,1.69-1.24,2.84,0,0-.34.86-.17,1.96,0,0,.76,1.44,2.1.27,0,0,.56-2.06,2.12-2.79,0,0,1.09-.34,1.33-1.32,0,0,2.76-1.25,4-1.47,0,0,3.27-.98,4.99-1.05,0,0,3.76,1.49,5.6-2.25,0,0,3.71-2.79,6.45-8.03,0,0,1.07.05,1.62-3.94l1.65-4.36s.58-2.57-.44-5.48c0,0,3.88-.24,3.93-.24s1.64-.18,2.78.17c0,0,2.87,1.1,3.76-.77,0,0,.6-.81-2.46-2.26,0,0-.89-.15-2.09.39,0,0-5.36-.29-7.22-.84l-1.22-3.51s-2.31-3.3-6.26-3.1l-.04-.17s.89-.44.87-.59c0,0-.16-5.38-3.76-5.67,0,0-4.76-.73-4.76,3.49,0,0-.1,3.82,3.4,3.93l.23.77-.76.51s-3.42,1.1-5.58,1.21c0,0-1.84.35-2.29.4,0,0,.13-2.99,1.44-5.08l.78-4.75s-1.18-.94-2.2.35l-.87,1.4s-1.25.77-.96,2.68c0,0,.55.81.27,1.54l-2.27,4.46s-1.02,2.18,1.18,2.64c0,0,2.91.77,4.29.75l5.82.15s.55.57,1.87.75l3.06,3.12s.04,1.76-.58,2.31c0,0-2.73.99-1.93,5.69,0,0-2.51,4.9-2.87,6.33,0,0-.51,1.06-1.04-.02,0,0-1.73-1.84-4.67-1.98l-3.27.04-.45-.28-2.8-.09Z"/>
      </g>
    </g>
  </g>
</svg>